<?xml version="1.0" encoding="utf-8"?>
<svg width="837" height="990" viewBox="0 0 837 990" xmlns="http://www.w3.org/2000/svg">
<rect id="frame" x="0" y="0" width="837" height="990" fill="#ffffbf" stroke="none" stroke-width="0"/>

<!-- Association contient -->
<g class="page_0_qFVBSMOU diagram_page" visibility="visible">
	<line x1="230" y1="424" x2="60" y2="212" stroke="#66bd63" stroke-width="2"/>
	<text x="126" y="339.0" fill="#d73027" font-family="Verdana" font-size="12">1,N</text>
	<line x1="60" y1="85" x2="60" y2="212" stroke="#66bd63" stroke-width="2"/>
	<text x="65" y="144" fill="#d73027" font-family="Verdana" font-size="12">1,1</text>
	<g>
		<path d="M78 187 a14 14 90 0 1 14 14 V212 h-64 V201 a14 14 90 0 1 14 -14" fill="#a6d96a" stroke="#a6d96a" stroke-width="0"/>
		<path d="M92 212 v11 a14 14 90 0 1 -14 14 H42 a14 14 90 0 1 -14 -14 V212 H64" fill="#d9ef8b" stroke="#d9ef8b" stroke-width="0"/>
		<rect x="28" y="187" width="64" height="50" fill="none" rx="14" stroke="#66bd63" stroke-width="2"/>
		<line x1="28" y1="212" x2="92" y2="212" stroke="#66bd63" stroke-width="1"/>
		<text x="35" y="204.75" fill="#000" font-family="Verdana" font-size="12">contient</text>
	</g>
</g>

<!-- Association appartient -->
<g class="page_0_qFVBSMOU diagram_page" visibility="visible">
	<line x1="230" y1="85" x2="230" y2="212" stroke="#66bd63" stroke-width="2"/>
	<text x="235" y="178" fill="#d73027" font-family="Verdana" font-size="12">1,N</text>
	<line x1="230" y1="424" x2="230" y2="212" stroke="#66bd63" stroke-width="2"/>
	<text x="235" y="289" fill="#d73027" font-family="Verdana" font-size="12">1,1</text>
	<g>
		<path d="M255 187 a14 14 90 0 1 14 14 V212 h-78 V201 a14 14 90 0 1 14 -14" fill="#a6d96a" stroke="#a6d96a" stroke-width="0"/>
		<path d="M269 212 v11 a14 14 90 0 1 -14 14 H205 a14 14 90 0 1 -14 -14 V212 H78" fill="#d9ef8b" stroke="#d9ef8b" stroke-width="0"/>
		<rect x="191" y="187" width="78" height="50" fill="none" rx="14" stroke="#66bd63" stroke-width="2"/>
		<line x1="191" y1="212" x2="269" y2="212" stroke="#66bd63" stroke-width="1"/>
		<text x="199" y="204.75" fill="#000" font-family="Verdana" font-size="12">appartient</text>
	</g>
</g>

<!-- Association interventions_locations -->
<g class="page_0_qFVBSMOU diagram_page" visibility="visible">
	<line x1="579" y1="212" x2="413" y2="212" stroke="#66bd63" stroke-width="2"/>
	<text x="496" y="229" fill="#d73027" font-family="Verdana" font-size="12">1,N</text>
	<line x1="230" y1="424" x2="413" y2="212" stroke="#66bd63" stroke-width="2"/>
	<text x="312" y="345.46" fill="#d73027" font-family="Verdana" font-size="12">1,N</text>
	<g>
		<path d="M477 170 a14 14 90 0 1 14 14 V195 h-156 V184 a14 14 90 0 1 14 -14" fill="#a6d96a" stroke="#a6d96a" stroke-width="0"/>
		<path d="M491 195 v45 a14 14 90 0 1 -14 14 H349 a14 14 90 0 1 -14 -14 V195 H156" fill="#d9ef8b" stroke="#d9ef8b" stroke-width="0"/>
		<rect x="335" y="170" width="156" height="84" fill="none" rx="14" stroke="#66bd63" stroke-width="2"/>
		<line x1="335" y1="195" x2="491" y2="195" stroke="#66bd63" stroke-width="1"/>
		<text x="343" y="187.75" fill="#000" font-family="Verdana" font-size="12">interventions_locations</text>
		<text x="342" y="212.8" fill="#000" font-family="Verdana" font-size="12">id</text>
		<text x="342" y="229.8" fill="#000" font-family="Verdana" font-size="12">intervention_id</text>
		<text x="342" y="246.8" fill="#000" font-family="Verdana" font-size="12">location_id</text>
	</g>
</g>

<!-- Association travaille -->
<g class="page_0_qFVBSMOU diagram_page" visibility="visible">
	<line x1="230" y1="424" x2="60" y2="424" stroke="#66bd63" stroke-width="2"/>
	<text x="127" y="441" fill="#d73027" font-family="Verdana" font-size="12">1,1</text>
	<line x1="60" y1="627" x2="60" y2="424" stroke="#66bd63" stroke-width="2"/>
	<text x="65" y="551" fill="#d73027" font-family="Verdana" font-size="12">1,1</text>
	<g>
		<path d="M78 399 a14 14 90 0 1 14 14 V424 h-64 V413 a14 14 90 0 1 14 -14" fill="#a6d96a" stroke="#a6d96a" stroke-width="0"/>
		<path d="M92 424 v11 a14 14 90 0 1 -14 14 H42 a14 14 90 0 1 -14 -14 V424 H64" fill="#d9ef8b" stroke="#d9ef8b" stroke-width="0"/>
		<rect x="28" y="399" width="64" height="50" fill="none" rx="14" stroke="#66bd63" stroke-width="2"/>
		<line x1="28" y1="424" x2="92" y2="424" stroke="#66bd63" stroke-width="1"/>
		<text x="36" y="416.75" fill="#000" font-family="Verdana" font-size="12">travaille</text>
	</g>
</g>

<!-- Association locations_employees -->
<g class="page_0_qFVBSMOU diagram_page" visibility="visible">
	<line x1="230" y1="424" x2="413" y2="424" stroke="#66bd63" stroke-width="2"/>
	<text x="312" y="441" fill="#d73027" font-family="Verdana" font-size="12">1,N</text>
	<line x1="579" y1="424" x2="413" y2="424" stroke="#66bd63" stroke-width="2"/>
	<text x="501" y="441" fill="#d73027" font-family="Verdana" font-size="12">1,N</text>
	<g>
		<path d="M469 382 a14 14 90 0 1 14 14 V407 h-140 V396 a14 14 90 0 1 14 -14" fill="#a6d96a" stroke="#a6d96a" stroke-width="0"/>
		<path d="M483 407 v45 a14 14 90 0 1 -14 14 H357 a14 14 90 0 1 -14 -14 V407 H140" fill="#d9ef8b" stroke="#d9ef8b" stroke-width="0"/>
		<rect x="343" y="382" width="140" height="84" fill="none" rx="14" stroke="#66bd63" stroke-width="2"/>
		<line x1="343" y1="407" x2="483" y2="407" stroke="#66bd63" stroke-width="1"/>
		<text x="350" y="399.75" fill="#000" font-family="Verdana" font-size="12">locations_employees</text>
		<text x="350" y="424.8" fill="#000" font-family="Verdana" font-size="12">id</text>
		<text x="350" y="441.8" fill="#000" font-family="Verdana" font-size="12">employee_id</text>
		<text x="350" y="458.8" fill="#000" font-family="Verdana" font-size="12">location_id</text>
	</g>
</g>

<!-- Association interventions_employees -->
<g class="page_0_qFVBSMOU diagram_page" visibility="visible">
	<line x1="579" y1="212" x2="745" y2="424" stroke="#66bd63" stroke-width="2"/>
	<text x="640" y="281.38" fill="#d73027" font-family="Verdana" font-size="12">1,N</text>
	<line x1="579" y1="424" x2="745" y2="424" stroke="#66bd63" stroke-width="2"/>
	<text x="635" y="441" fill="#d73027" font-family="Verdana" font-size="12">1,N</text>
	<g>
		<path d="M814 382 a14 14 90 0 1 14 14 V407 h-166 V396 a14 14 90 0 1 14 -14" fill="#a6d96a" stroke="#a6d96a" stroke-width="0"/>
		<path d="M828 407 v45 a14 14 90 0 1 -14 14 H676 a14 14 90 0 1 -14 -14 V407 H166" fill="#d9ef8b" stroke="#d9ef8b" stroke-width="0"/>
		<rect x="662" y="382" width="166" height="84" fill="none" rx="14" stroke="#66bd63" stroke-width="2"/>
		<line x1="662" y1="407" x2="828" y2="407" stroke="#66bd63" stroke-width="1"/>
		<text x="669" y="399.75" fill="#000" font-family="Verdana" font-size="12">interventions_employees</text>
		<text x="669" y="424.8" fill="#000" font-family="Verdana" font-size="12">id</text>
		<text x="669" y="441.8" fill="#000" font-family="Verdana" font-size="12">employee_id</text>
		<text x="669" y="458.8" fill="#000" font-family="Verdana" font-size="12">intervention_id</text>
	</g>
</g>

<!-- Association locations_employees_jobs -->
<g class="page_0_qFVBSMOU diagram_page" visibility="visible">
	<line x1="230" y1="424" x2="230" y2="627" stroke="#66bd63" stroke-width="2"/>
	<text x="203" y="568" fill="#d73027" font-family="Verdana" font-size="12">1,N</text>
	<line x1="230" y1="762" x2="230" y2="627" stroke="#66bd63" stroke-width="2"/>
	<text x="235" y="703" fill="#d73027" font-family="Verdana" font-size="12">1,N</text>
	<g>
		<path d="M303 576 a14 14 90 0 1 14 14 V601 h-174 V590 a14 14 90 0 1 14 -14" fill="#a6d96a" stroke="#a6d96a" stroke-width="0"/>
		<path d="M317 601 v63 a14 14 90 0 1 -14 14 H157 a14 14 90 0 1 -14 -14 V601 H174" fill="#d9ef8b" stroke="#d9ef8b" stroke-width="0"/>
		<rect x="143" y="576" width="174" height="102" fill="none" rx="14" stroke="#66bd63" stroke-width="2"/>
		<line x1="143" y1="601" x2="317" y2="601" stroke="#66bd63" stroke-width="1"/>
		<text x="151" y="593.75" fill="#000" font-family="Verdana" font-size="12">locations_employees_jobs</text>
		<text x="150" y="618.8" fill="#000" font-family="Verdana" font-size="12">id</text>
		<text x="150" y="635.8" fill="#000" font-family="Verdana" font-size="12">location_id</text>
		<text x="150" y="652.8" fill="#000" font-family="Verdana" font-size="12">employee_id</text>
		<text x="150" y="669.8" fill="#000" font-family="Verdana" font-size="12">job_id</text>
	</g>
</g>

<!-- Association locations_products -->
<g class="page_0_qFVBSMOU diagram_page" visibility="visible">
	<line x1="579" y1="627" x2="413" y2="627" stroke="#66bd63" stroke-width="2"/>
	<text x="504" y="644" fill="#d73027" font-family="Verdana" font-size="12">1,N</text>
	<line x1="230" y1="424" x2="413" y2="627" stroke="#66bd63" stroke-width="2"/>
	<text x="312" y="507.97" fill="#d73027" font-family="Verdana" font-size="12">1,N</text>
	<g>
		<path d="M463 576 a14 14 90 0 1 14 14 V601 h-128 V590 a14 14 90 0 1 14 -14" fill="#a6d96a" stroke="#a6d96a" stroke-width="0"/>
		<path d="M477 601 v63 a14 14 90 0 1 -14 14 H363 a14 14 90 0 1 -14 -14 V601 H128" fill="#d9ef8b" stroke="#d9ef8b" stroke-width="0"/>
		<rect x="349" y="576" width="128" height="102" fill="none" rx="14" stroke="#66bd63" stroke-width="2"/>
		<line x1="349" y1="601" x2="477" y2="601" stroke="#66bd63" stroke-width="1"/>
		<text x="356" y="593.75" fill="#000" font-family="Verdana" font-size="12">locations_products</text>
		<text x="356" y="618.8" fill="#000" font-family="Verdana" font-size="12">id</text>
		<text x="356" y="635.8" fill="#000" font-family="Verdana" font-size="12">location_id</text>
		<text x="356" y="652.8" fill="#000" font-family="Verdana" font-size="12">product_id</text>
		<text x="356" y="669.8" fill="#000" font-family="Verdana" font-size="12">quantity</text>
	</g>
</g>

<!-- Association products_pcategories -->
<g class="page_0_qFVBSMOU diagram_page" visibility="visible">
	<line x1="579" y1="627" x2="745" y2="627" stroke="#66bd63" stroke-width="2"/>
	<text x="632" y="644" fill="#d73027" font-family="Verdana" font-size="12">1,N</text>
	<line x1="745" y1="762" x2="745" y2="627" stroke="#66bd63" stroke-width="2"/>
	<text x="750" y="720" fill="#d73027" font-family="Verdana" font-size="12">1,N</text>
	<g>
		<path d="M803 585 a14 14 90 0 1 14 14 V610 h-144 V599 a14 14 90 0 1 14 -14" fill="#a6d96a" stroke="#a6d96a" stroke-width="0"/>
		<path d="M817 610 v45 a14 14 90 0 1 -14 14 H687 a14 14 90 0 1 -14 -14 V610 H144" fill="#d9ef8b" stroke="#d9ef8b" stroke-width="0"/>
		<rect x="673" y="585" width="144" height="84" fill="none" rx="14" stroke="#66bd63" stroke-width="2"/>
		<line x1="673" y1="610" x2="817" y2="610" stroke="#66bd63" stroke-width="1"/>
		<text x="680" y="602.75" fill="#000" font-family="Verdana" font-size="12">products_pcategories</text>
		<text x="680" y="627.8" fill="#000" font-family="Verdana" font-size="12">id</text>
		<text x="680" y="644.8" fill="#000" font-family="Verdana" font-size="12">product_id</text>
		<text x="680" y="661.8" fill="#000" font-family="Verdana" font-size="12">pcategory_id</text>
	</g>
</g>

<!-- Association jobs_janitors -->
<g class="page_0_qFVBSMOU diagram_page" visibility="visible">
	<line x1="60" y1="627" x2="60" y2="762" stroke="#66bd63" stroke-width="2"/>
	<text x="65" y="712" fill="#d73027" font-family="Verdana" font-size="12">1,N</text>
	<line x1="230" y1="762" x2="60" y2="762" stroke="#66bd63" stroke-width="2"/>
	<text x="149" y="779" fill="#d73027" font-family="Verdana" font-size="12">1,N</text>
	<g>
		<path d="M93 720 a14 14 90 0 1 14 14 V745 h-94 V734 a14 14 90 0 1 14 -14" fill="#a6d96a" stroke="#a6d96a" stroke-width="0"/>
		<path d="M107 745 v45 a14 14 90 0 1 -14 14 H27 a14 14 90 0 1 -14 -14 V745 H94" fill="#d9ef8b" stroke="#d9ef8b" stroke-width="0"/>
		<rect x="13" y="720" width="94" height="84" fill="none" rx="14" stroke="#66bd63" stroke-width="2"/>
		<line x1="13" y1="745" x2="107" y2="745" stroke="#66bd63" stroke-width="1"/>
		<text x="21" y="737.75" fill="#000" font-family="Verdana" font-size="12">jobs_janitors</text>
		<text x="20" y="762.8" fill="#000" font-family="Verdana" font-size="12">id</text>
		<text x="20" y="779.8" fill="#000" font-family="Verdana" font-size="12">job_id</text>
		<text x="20" y="796.8" fill="#000" font-family="Verdana" font-size="12">janitor_id</text>
	</g>
</g>

<!-- Association frequence -->
<g class="page_0_qFVBSMOU diagram_page" visibility="visible">
	<line x1="230" y1="762" x2="230" y2="863" stroke="#66bd63" stroke-width="2"/>
	<text x="235" y="830" fill="#d73027" font-family="Verdana" font-size="12">1,1</text>
	<line x1="230" y1="947" x2="230" y2="863" stroke="#66bd63" stroke-width="2"/>
	<text x="235" y="905" fill="#d73027" font-family="Verdana" font-size="12">1,N</text>
	<g>
		<path d="M254 838 a14 14 90 0 1 14 14 V863 h-76 V852 a14 14 90 0 1 14 -14" fill="#a6d96a" stroke="#a6d96a" stroke-width="0"/>
		<path d="M268 863 v11 a14 14 90 0 1 -14 14 H206 a14 14 90 0 1 -14 -14 V863 H76" fill="#d9ef8b" stroke="#d9ef8b" stroke-width="0"/>
		<rect x="192" y="838" width="76" height="50" fill="none" rx="14" stroke="#66bd63" stroke-width="2"/>
		<line x1="192" y1="863" x2="268" y2="863" stroke="#66bd63" stroke-width="1"/>
		<text x="200" y="855.75" fill="#000" font-family="Verdana" font-size="12">frequence</text>
	</g>
</g>

<!-- Entity buildings -->
<g class="page_0_qFVBSMOU diagram_page" visibility="visible">
	<g>
		<rect x="10" y="43" width="100" height="25" fill="#fdae61" stroke="#fdae61" stroke-width="0" opacity="1"/>
		<rect x="10" y="68" width="100" height="59" fill="#fee08b" stroke="#fee08b" stroke-width="0" opacity="1"/>
		<rect x="10" y="43" width="100" height="84" fill="none" stroke="#f46d43" stroke-width="2" opacity="1"/>
		<line x1="10" y1="68" x2="110" y2="68" stroke="#f46d43" stroke-width="1"/>
	</g>
	<text x="33" y="60.75" fill="#000" font-family="Verdana" font-size="12">buildings</text>
	<text x="15" y="85.8" fill="#000" font-family="Verdana" font-size="12">id</text>
	<line x1="15" y1="88" x2="27" y2="88" stroke="#000" stroke-width="1"/>
	<text x="15" y="102.8" fill="#000" font-family="Verdana" font-size="12">street_number</text>
	<text x="15" y="119.8" fill="#000" font-family="Verdana" font-size="12">location_id</text>
</g>

<!-- Entity agencies -->
<g class="page_0_qFVBSMOU diagram_page" visibility="visible">
	<g>
		<rect x="179" y="9" width="102" height="25" fill="#fdae61" stroke="#fdae61" stroke-width="0" opacity="1"/>
		<rect x="179" y="34" width="102" height="127" fill="#fee08b" stroke="#fee08b" stroke-width="0" opacity="1"/>
		<rect x="179" y="9" width="102" height="152" fill="none" stroke="#f46d43" stroke-width="2" opacity="1"/>
		<line x1="179" y1="34" x2="281" y2="34" stroke="#f46d43" stroke-width="1"/>
	</g>
	<text x="204" y="26.75" fill="#000" font-family="Verdana" font-size="12">agencies</text>
	<text x="184" y="51.8" fill="#000" font-family="Verdana" font-size="12">id</text>
	<line x1="184" y1="54" x2="196" y2="54" stroke="#000" stroke-width="1"/>
	<text x="184" y="68.8" fill="#000" font-family="Verdana" font-size="12">name</text>
	<text x="184" y="85.8" fill="#000" font-family="Verdana" font-size="12">address</text>
	<text x="184" y="102.8" fill="#000" font-family="Verdana" font-size="12">zipcode</text>
	<text x="184" y="119.8" fill="#000" font-family="Verdana" font-size="12">city</text>
	<text x="184" y="136.8" fill="#000" font-family="Verdana" font-size="12">phone_number</text>
	<text x="184" y="153.8" fill="#000" font-family="Verdana" font-size="12">email</text>
</g>

<!-- Entity interventions -->
<g class="page_0_qFVBSMOU diagram_page" visibility="visible">
	<g>
		<rect x="523" y="110" width="112" height="25" fill="#fdae61" stroke="#fdae61" stroke-width="0" opacity="1"/>
		<rect x="523" y="135" width="112" height="179" fill="#fee08b" stroke="#fee08b" stroke-width="0" opacity="1"/>
		<rect x="523" y="110" width="112" height="204" fill="none" stroke="#f46d43" stroke-width="2" opacity="1"/>
		<line x1="523" y1="135" x2="635" y2="135" stroke="#f46d43" stroke-width="1"/>
	</g>
	<text x="539" y="127.75" fill="#000" font-family="Verdana" font-size="12">interventions</text>
	<text x="528" y="152.8" fill="#000" font-family="Verdana" font-size="12">id</text>
	<line x1="528" y1="155" x2="540" y2="155" stroke="#000" stroke-width="1"/>
	<text x="528" y="169.8" fill="#000" font-family="Verdana" font-size="12">description</text>
	<text x="528" y="186.8" fill="#000" font-family="Verdana" font-size="12">is_urgent</text>
	<text x="528" y="203.8" fill="#000" font-family="Verdana" font-size="12">date</text>
	<text x="528" y="220.8" fill="#000" font-family="Verdana" font-size="12">duration</text>
	<text x="528" y="237.8" fill="#000" font-family="Verdana" font-size="12">location_exist</text>
	<text x="528" y="254.8" fill="#000" font-family="Verdana" font-size="12">location_name</text>
	<text x="528" y="271.8" fill="#000" font-family="Verdana" font-size="12">location_address</text>
	<text x="528" y="288.8" fill="#000" font-family="Verdana" font-size="12">location_zipcode</text>
	<text x="528" y="305.8" fill="#000" font-family="Verdana" font-size="12">location_city</text>
</g>

<!-- Entity locations -->
<g class="page_0_qFVBSMOU diagram_page" visibility="visible">
	<g>
		<rect x="153" y="297" width="154" height="25" fill="#fdae61" stroke="#fdae61" stroke-width="0" opacity="1"/>
		<rect x="153" y="322" width="154" height="229" fill="#fee08b" stroke="#fee08b" stroke-width="0" opacity="1"/>
		<rect x="153" y="297" width="154" height="254" fill="none" stroke="#f46d43" stroke-width="2" opacity="1"/>
		<line x1="153" y1="322" x2="307" y2="322" stroke="#f46d43" stroke-width="1"/>
	</g>
	<text x="203" y="314.75" fill="#000" font-family="Verdana" font-size="12">locations</text>
	<text x="158" y="339.8" fill="#000" font-family="Verdana" font-size="12">id</text>
	<line x1="158" y1="342" x2="170" y2="342" stroke="#000" stroke-width="1"/>
	<text x="158" y="356.8" fill="#000" font-family="Verdana" font-size="12">name</text>
	<text x="158" y="373.8" fill="#000" font-family="Verdana" font-size="12">address</text>
	<text x="158" y="390.8" fill="#000" font-family="Verdana" font-size="12">zipcode</text>
	<text x="158" y="407.8" fill="#000" font-family="Verdana" font-size="12">city</text>
	<text x="158" y="424.8" fill="#000" font-family="Verdana" font-size="12">building_number</text>
	<text x="158" y="441.8" fill="#000" font-family="Verdana" font-size="12">management</text>
	<text x="158" y="458.8" fill="#000" font-family="Verdana" font-size="12">syndic_id</text>
	<text x="158" y="475.8" fill="#000" font-family="Verdana" font-size="12">is_janitor</text>
	<text x="158" y="492.8" fill="#000" font-family="Verdana" font-size="12">contact_firstame</text>
	<text x="158" y="509.8" fill="#000" font-family="Verdana" font-size="12">contact_lastname</text>
	<text x="158" y="526.8" fill="#000" font-family="Verdana" font-size="12">contact_email</text>
	<text x="158" y="543.8" fill="#000" font-family="Verdana" font-size="12">contact_phone_number</text>
</g>

<!-- Entity employees -->
<g class="page_0_qFVBSMOU diagram_page" visibility="visible">
	<g>
		<rect x="528" y="339" width="102" height="25" fill="#fdae61" stroke="#fdae61" stroke-width="0" opacity="1"/>
		<rect x="528" y="364" width="102" height="145" fill="#fee08b" stroke="#fee08b" stroke-width="0" opacity="1"/>
		<rect x="528" y="339" width="102" height="170" fill="none" stroke="#f46d43" stroke-width="2" opacity="1"/>
		<line x1="528" y1="364" x2="630" y2="364" stroke="#f46d43" stroke-width="1"/>
	</g>
	<text x="546" y="356.75" fill="#000" font-family="Verdana" font-size="12">employees</text>
	<text x="533" y="381.8" fill="#000" font-family="Verdana" font-size="12">id</text>
	<line x1="533" y1="384" x2="545" y2="384" stroke="#000" stroke-width="1"/>
	<text x="533" y="398.8" fill="#000" font-family="Verdana" font-size="12">lastname</text>
	<text x="533" y="415.8" fill="#000" font-family="Verdana" font-size="12">firstname</text>
	<text x="533" y="432.8" fill="#000" font-family="Verdana" font-size="12">address</text>
	<text x="533" y="449.8" fill="#000" font-family="Verdana" font-size="12">zipcode</text>
	<text x="533" y="466.8" fill="#000" font-family="Verdana" font-size="12">city</text>
	<text x="533" y="483.8" fill="#000" font-family="Verdana" font-size="12">phone_number</text>
	<text x="533" y="500.8" fill="#000" font-family="Verdana" font-size="12">email</text>
</g>

<!-- Entity janitors -->
<g class="page_0_qFVBSMOU diagram_page" visibility="visible">
	<g>
		<rect x="9" y="559" width="102" height="25" fill="#fdae61" stroke="#fdae61" stroke-width="0" opacity="1"/>
		<rect x="9" y="584" width="102" height="111" fill="#fee08b" stroke="#fee08b" stroke-width="0" opacity="1"/>
		<rect x="9" y="559" width="102" height="136" fill="none" stroke="#f46d43" stroke-width="2" opacity="1"/>
		<line x1="9" y1="584" x2="111" y2="584" stroke="#f46d43" stroke-width="1"/>
	</g>
	<text x="37" y="576.75" fill="#000" font-family="Verdana" font-size="12">janitors</text>
	<text x="14" y="601.8" fill="#000" font-family="Verdana" font-size="12">id</text>
	<line x1="14" y1="604" x2="26" y2="604" stroke="#000" stroke-width="1"/>
	<text x="14" y="618.8" fill="#000" font-family="Verdana" font-size="12">firstname</text>
	<text x="14" y="635.8" fill="#000" font-family="Verdana" font-size="12">lastname</text>
	<text x="14" y="652.8" fill="#000" font-family="Verdana" font-size="12">phone_number</text>
	<text x="14" y="669.8" fill="#000" font-family="Verdana" font-size="12">email</text>
	<text x="14" y="686.8" fill="#000" font-family="Verdana" font-size="12">location_id</text>
</g>

<!-- Entity products -->
<g class="page_0_qFVBSMOU diagram_page" visibility="visible">
	<g>
		<rect x="531" y="576" width="96" height="25" fill="#fdae61" stroke="#fdae61" stroke-width="0" opacity="1"/>
		<rect x="531" y="601" width="96" height="77" fill="#fee08b" stroke="#fee08b" stroke-width="0" opacity="1"/>
		<rect x="531" y="576" width="96" height="102" fill="none" stroke="#f46d43" stroke-width="2" opacity="1"/>
		<line x1="531" y1="601" x2="627" y2="601" stroke="#f46d43" stroke-width="1"/>
	</g>
	<text x="553" y="593.75" fill="#000" font-family="Verdana" font-size="12">products</text>
	<text x="536" y="618.8" fill="#000" font-family="Verdana" font-size="12">id</text>
	<line x1="536" y1="621" x2="548" y2="621" stroke="#000" stroke-width="1"/>
	<text x="536" y="635.8" fill="#000" font-family="Verdana" font-size="12">name</text>
	<text x="536" y="652.8" fill="#000" font-family="Verdana" font-size="12">total_quantity</text>
	<text x="536" y="669.8" fill="#000" font-family="Verdana" font-size="12">description</text>
</g>

<!-- Entity jobs -->
<g class="page_0_qFVBSMOU diagram_page" visibility="visible">
	<g>
		<rect x="176" y="711" width="108" height="25" fill="#fdae61" stroke="#fdae61" stroke-width="0" opacity="1"/>
		<rect x="176" y="736" width="108" height="77" fill="#fee08b" stroke="#fee08b" stroke-width="0" opacity="1"/>
		<rect x="176" y="711" width="108" height="102" fill="none" stroke="#f46d43" stroke-width="2" opacity="1"/>
		<line x1="176" y1="736" x2="284" y2="736" stroke="#f46d43" stroke-width="1"/>
	</g>
	<text x="217" y="728.75" fill="#000" font-family="Verdana" font-size="12">jobs</text>
	<text x="181" y="753.8" fill="#000" font-family="Verdana" font-size="12">id</text>
	<line x1="181" y1="756" x2="193" y2="756" stroke="#000" stroke-width="1"/>
	<text x="181" y="770.8" fill="#000" font-family="Verdana" font-size="12">description</text>
	<text x="181" y="787.8" fill="#000" font-family="Verdana" font-size="12">hours</text>
	<text x="181" y="804.8" fill="#000" font-family="Verdana" font-size="12">jobfrequency_id</text>
</g>

<!-- Entity pcategories -->
<g class="page_0_qFVBSMOU diagram_page" visibility="visible">
	<g>
		<rect x="705" y="728" width="80" height="25" fill="#fdae61" stroke="#fdae61" stroke-width="0" opacity="1"/>
		<rect x="705" y="753" width="80" height="43" fill="#fee08b" stroke="#fee08b" stroke-width="0" opacity="1"/>
		<rect x="705" y="728" width="80" height="68" fill="none" stroke="#f46d43" stroke-width="2" opacity="1"/>
		<line x1="705" y1="753" x2="785" y2="753" stroke="#f46d43" stroke-width="1"/>
	</g>
	<text x="710" y="745.75" fill="#000" font-family="Verdana" font-size="12">pcategories</text>
	<text x="710" y="770.8" fill="#000" font-family="Verdana" font-size="12">id</text>
	<line x1="710" y1="773" x2="722" y2="773" stroke="#000" stroke-width="1"/>
	<text x="710" y="787.8" fill="#000" font-family="Verdana" font-size="12">name</text>
</g>

<!-- Entity jobfrequencies -->
<g class="page_0_qFVBSMOU diagram_page" visibility="visible">
	<g>
		<rect x="180" y="913" width="100" height="25" fill="#fdae61" stroke="#fdae61" stroke-width="0" opacity="1"/>
		<rect x="180" y="938" width="100" height="43" fill="#fee08b" stroke="#fee08b" stroke-width="0" opacity="1"/>
		<rect x="180" y="913" width="100" height="68" fill="none" stroke="#f46d43" stroke-width="2" opacity="1"/>
		<line x1="180" y1="938" x2="280" y2="938" stroke="#f46d43" stroke-width="1"/>
	</g>
	<text x="186" y="930.75" fill="#000" font-family="Verdana" font-size="12">jobfrequencies</text>
	<text x="185" y="955.8" fill="#000" font-family="Verdana" font-size="12">id</text>
	<line x1="185" y1="958" x2="197" y2="958" stroke="#000" stroke-width="1"/>
	<text x="185" y="972.8" fill="#000" font-family="Verdana" font-size="12">frequency</text>
</g>
</svg>